<svg width="66" height="66" viewBox="0 0 66 66" fill="none" xmlns="http://www.w3.org/2000/svg">
<rect x="0.6875" y="0.6875" width="64.625" height="64.625" rx="10.3125" stroke="#3A3F87" stroke-width="1.375"/>
<path d="M43.7655 42.3124C43.3633 41.9102 42.7136 41.9102 42.3114 42.3124C41.9092 42.7146 41.9092 43.3643 42.3114 43.7664L43.7964 45.2514C44.0027 45.4577 44.2605 45.5505 44.5286 45.5505C44.7967 45.5505 45.0545 45.4474 45.2608 45.2514C45.663 44.8493 45.663 44.1996 45.2608 43.7974L43.7758 42.3124H43.7655Z" fill="#3A3F87"/>
<path d="M47.1909 39.2496L45.1697 38.7031C44.6231 38.5587 44.0559 38.8784 43.9115 39.4352C43.7672 39.9921 44.0869 40.549 44.6437 40.6934L46.665 41.2399C46.7578 41.2606 46.8403 41.2709 46.9331 41.2709C47.3869 41.2709 47.8097 40.9718 47.9231 40.5077C48.0675 39.9612 47.7478 39.394 47.1909 39.2496Z" fill="#3A3F87"/>
<path d="M40.7039 44.6323C40.5595 44.0858 39.9924 43.7558 39.4458 43.9001C38.8992 44.0445 38.5692 44.6117 38.7136 45.1583L39.2602 47.1795C39.3839 47.6436 39.7964 47.9426 40.2502 47.9426C40.343 47.9426 40.4255 47.9323 40.5183 47.9117C41.0649 47.7673 41.3949 47.2001 41.2505 46.6536L40.7039 44.6323Z" fill="#3A3F87"/>
<path d="M22.2334 23.688C22.4396 23.8942 22.6974 23.987 22.9655 23.987C23.2337 23.987 23.4915 23.8839 23.6977 23.688C24.0999 23.2858 24.0999 22.6361 23.6977 22.2339L22.2127 20.7489C21.8105 20.3467 21.1609 20.3467 20.7587 20.7489C20.3565 21.1511 20.3565 21.8008 20.7587 22.203L22.2437 23.688H22.2334Z" fill="#3A3F87"/>
<path d="M18.8098 26.7505L20.831 27.2971C20.9238 27.3177 21.0063 27.328 21.0991 27.328C21.5529 27.328 21.9757 27.0289 22.0891 26.5649C22.2335 26.0183 21.9138 25.4511 21.3569 25.3067L19.3357 24.7602C18.7891 24.6158 18.2219 24.9355 18.0776 25.4924C17.9332 26.0492 18.2529 26.6061 18.8098 26.7505Z" fill="#3A3F87"/>
<path d="M25.2973 21.3675C25.421 21.8316 25.8335 22.1306 26.2873 22.1306C26.3801 22.1306 26.4626 22.1203 26.5554 22.0997C27.102 21.9553 27.432 21.3881 27.2876 20.8416L26.741 18.8203C26.5967 18.2737 26.0295 17.9437 25.4829 18.0881C24.9363 18.2325 24.6063 18.7997 24.7507 19.3462L25.2973 21.3675Z" fill="#3A3F87"/>
<path d="M41.7553 31.4634C42.2709 33.1238 42.3947 34.8872 42.1163 36.5887L45.8391 32.8659C49.3453 29.3597 49.3453 23.6672 45.8391 20.1609C44.1375 18.4594 41.8894 17.5312 39.4866 17.5312C37.0838 17.5312 34.8356 18.4697 33.1341 20.1609L28.4109 24.8841C27.8025 25.4822 27.3075 26.1628 26.9053 26.895C26.1731 27.2972 25.4925 27.8025 24.8841 28.4109L20.1609 33.1341C18.4697 34.8253 17.5312 37.0838 17.5312 39.4866C17.5312 41.8894 18.4594 44.1478 20.1609 45.8391C21.8522 47.5303 24.1106 48.4688 26.5134 48.4688C28.9162 48.4688 31.1747 47.5303 32.8659 45.8391L37.5891 41.1159C41.0953 37.6097 41.0953 31.9172 37.5891 28.4109C36.2794 27.1013 34.6397 26.2556 32.8556 25.9256L35.8772 22.9041C36.8363 21.9347 38.1253 21.4088 39.4866 21.4088C40.8478 21.4088 42.1266 21.9347 43.0959 22.9041C45.0863 24.8944 45.0863 28.1325 43.0959 30.1228L41.7553 31.4634ZM36.1247 36.1247C35.6813 36.2484 35.2378 36.3309 34.7634 36.3309C33.4022 36.3309 32.1131 35.805 31.1541 34.8356C30.3806 34.0622 29.9269 33.1134 29.7516 32.1131C29.5144 32.2472 29.2875 32.4019 29.0916 32.5978L26.6475 35.0419C27.0806 35.97 27.6684 36.8259 28.4213 37.5788C29.7309 38.8884 31.3706 39.7341 33.1547 40.0538L30.1228 43.0856C29.1638 44.0447 27.8747 44.5809 26.5134 44.5809C25.1522 44.5809 23.8631 44.055 22.9041 43.0856C20.9138 41.0953 20.9138 37.8572 22.9041 35.8669L27.6272 31.1437C28.5862 30.1744 29.8753 29.6484 31.2366 29.6484C32.5978 29.6484 33.8766 30.1744 34.8459 31.1437C36.1866 32.4947 36.6094 34.4025 36.1247 36.1144V36.1247Z" fill="#3A3F87"/>
</svg>
